Format: AVI
Format/Info: Audio Video Interleave
File size: 701 MiB
Duration: 1h 39mn
Overall bit rate mode: Variable
Overall bit rate: 986 Kbps
Writing application: VirtualDubMod 1.5.10.2 (build 2540/release)
Writing library: VirtualDubMod build 2540/release

Video
ID: 0
Format: MPEG-4 Visual
Format profile: Advanced Simple@L5
Format settings, BVOP: 2
Format settings, QPel: No
Format settings, GMC: No warppoints
Format settings, Matrix: Default (H.263)
Codec ID: XVID
Codec ID/Hint: XviD
Duration: 1h 39mn
Bit rate: 840 Kbps
Width: 624 pixels
Height: 352 pixels
Display aspect ratio: 16:9
Frame rate: 25.000 fps
Color space: YUV
Chroma subsampling: 4:2:0
Bit depth: 8 bits
Scan type: Progressive
Compression mode: Lossy
Bits/(Pixel*Frame): 0.153
Stream size: 597 MiB (85%)
Writing library: XviD 61

Audio
ID: 1
Format: MPEG Audio
Format version: Version 1
Format profile: Layer 3
Mode: Joint stereo
Mode extension: MS Stereo
Codec ID: 55
Codec ID/Hint: MP3
Duration: 1h 39mn
Bit rate mode: Variable
Bit rate: 133 Kbps
Minimum bit rate: 128 Kbps
Channel(s): 2 channels
Sampling rate: 48.0 KHz
Compression mode: Lossy
Stream size: 94.6 MiB (13%)
Alignment: Aligned on interleaves
Interleave, duration: 24 ms (0.60 video frame)
Interleave, preload duration: 277 ms
Writing library: LAME3.95
Encoding settings: -m j -V 4 -q 3 -lowpass 18 --vbr-old -b 128

Screen Shots
 
http://imagestorage.org/images/60889636208862290277.jpg 
http://imagestorage.org/images/08336664990349334945.jpg 
http://imagestorage.org/images/78166619641294270857.jpg